<svg id="Layer_1" data-name="Layer 1" xmlns="http://www.w3.org/2000/svg" xmlns:xlink="http://www.w3.org/1999/xlink" viewBox="0 0 1524.11 163.09"><defs><style>.cls-1{font-size:131.11px;fill:#fff;font-family:Heebo-Thin, Heebo;font-weight:200;}.cls-2{letter-spacing:0.01em;}.cls-3{letter-spacing:-0.01em;}.cls-4{letter-spacing:-0.02em;}.cls-5{letter-spacing:-0.02em;}.cls-6{fill:url(#linear-gradient);}.cls-7{fill:url(#linear-gradient-2);}.cls-8{fill:url(#linear-gradient-3);}</style><linearGradient id="linear-gradient" x1="207.57" y1="516.85" x2="271.44" y2="611.49" gradientUnits="userSpaceOnUse"><stop offset="0" stop-color="#cde43a"/><stop offset="1" stop-color="#58bc82"/></linearGradient><linearGradient id="linear-gradient-2" x1="246.82" y1="476.02" x2="341.59" y2="585.71" gradientUnits="userSpaceOnUse"><stop offset="0" stop-color="#c4e3fd"/><stop offset="0.33" stop-color="#4895ef"/><stop offset="0.65" stop-color="#1446a0"/><stop offset="1" stop-color="#13293d"/></linearGradient><linearGradient id="linear-gradient-3" x1="282.43" y1="613.08" x2="289.67" y2="613.08" gradientUnits="userSpaceOnUse"><stop offset="0" stop-color="#58bc82"/><stop offset="0.9" stop-color="#132d4a"/></linearGradient></defs><text class="cls-1" transform="translate(185.65 126.54)">Rene<tspan class="cls-2" x="289.69" y="0">r</tspan><tspan class="cls-3" x="334.7" y="0">v</tspan><tspan x="396.35" y="0">ate</tspan><tspan class="cls-4" x="573.11" y="0"> </tspan><tspan x="601.91" y="0">The</tspan><tspan class="cls-5" x="818.11" y="0">r</tspan><tspan x="859.4" y="0">apeutics</tspan></text><path class="cls-6" d="M294.41,613.28c-6.93.27-13.88,1-20.82.45a63.87,63.87,0,0,1-16.91-3.85,74.82,74.82,0,0,1-27.2-17.58,72.54,72.54,0,0,1-17.18-27.42,74.76,74.76,0,0,1-3.12-34.59,78.83,78.83,0,0,1,4-15.87,48.89,48.89,0,0,0-.7,16.8c.8,5.5,2.83,11.08,6.52,15.29a30,30,0,0,0,6.82,6.35,7.74,7.74,0,0,0,.82.54h0a28.94,28.94,0,0,0,4.71,2.39c.48.27,1,.52,1.46.75l.17.05a12.78,12.78,0,0,0,2,.55c.38.09.75.17,1.13.24l.47.13a8.75,8.75,0,0,0,3.66.38c.15,0,.14-.26,0-.29a36.45,36.45,0,0,1-7.06-2.31.16.16,0,0,0-.15,0,16.19,16.19,0,0,1-4.78-3.47c.89,0,1.78,0,2.66,0a31.66,31.66,0,0,1,3.77.37h.19a.14.14,0,0,0,.13.11,14.25,14.25,0,0,1,9.81,5.16c.12.14.3,0,.24-.19-1.62-3.67-5.36-5.54-9.16-6.13-3-.73-6.17-1-9.2-1.73a13.9,13.9,0,0,1-4.35-2.1,20.41,20.41,0,0,1-3.66-3.22l-.06,0a26.43,26.43,0,0,1-1.61-2.53c-3.51-6.46-4.28-14.14-3.55-21.35a66,66,0,0,1,2.94-13.39h0a74.12,74.12,0,0,1,5.14-8.83q1.22-1.78,2.55-3.5c.47-.62-.58-1.22-1-.61a78,78,0,0,0-13.14,67.35,73.18,73.18,0,0,0,16,29,76.59,76.59,0,0,0,26.56,19.22,70.82,70.82,0,0,0,15.79,4.76c6.92,1.22,13.89.89,20.86.49,1.76-.1,5.74-.59,7.5-.66C297.41,614.06,295.19,613.25,294.41,613.28Zm-56.14-60.57,0,0,0,0Zm5.25,2.73,0,0a.08.08,0,0,0,0,0l.08.09Zm-5.13-3.33Zm-1.44-.39,0,0h0Zm-7-1.32h0Zm-4.71-1.07-.24-.12-.16-.07.42.18Zm-1.81-.9h0l-.18-.12-.33-.2s0,0,0,0l.88.52Zm10.22,7.92.19.07-.19-.06ZM220.47,546.3h0l-.07-.07Z" transform="translate(-207.21 -463.19)"/><path class="cls-7" d="M357,528.85a83,83,0,0,0-11-29.91,76.27,76.27,0,0,0-20.22-22.19c-1-.74-2.06-1.45-3.11-2.13a1,1,0,0,0-.19-.08,60.56,60.56,0,0,0-14.63-7.38,72.44,72.44,0,0,0-16.65-3.59,79.94,79.94,0,0,0-17.15.18,76.25,76.25,0,0,0-16.67,3.77c-5.33,1.9-10.53,4.61-14.45,8.78-.49.52-1,1.07-1.41,1.63a.57.57,0,0,0-.12.28,6.41,6.41,0,0,0-1.5-.55,6.25,6.25,0,1,0,4.86,6.09,6.4,6.4,0,0,0-2.42-4.92l0-.05c3.51-4.43,8.44-7.42,13.65-9.47a71.94,71.94,0,0,1,16.19-4.12,80.18,80.18,0,0,1,16.89-.59,71.93,71.93,0,0,1,16.45,3.08,59.71,59.71,0,0,1,15,7c.58.37,1.14.76,1.7,1.15a.46.46,0,0,0,.23.1A73.43,73.43,0,0,1,343,496.55a81.93,81.93,0,0,1,12,28.58,78.09,78.09,0,0,1,.17,32.15,73.13,73.13,0,0,1-11.35,26.39,66.11,66.11,0,0,1-20.23,19.21l-1.35.78a79,79,0,0,0,12.05-11.93,78,78,0,0,0,10-15.85A73.64,73.64,0,0,0,350.08,558a68.35,68.35,0,0,0,.9-18.67,69,69,0,0,0-4.16-18.16A66.63,66.63,0,0,0,338,504.85a60.81,60.81,0,0,0-13.15-13,60.11,60.11,0,0,0-16.65-8.36,61.13,61.13,0,0,0-18.3-2.94,55.77,55.77,0,0,0-18.21,2.87c-1.43.48-2.84,1-4.23,1.63a.57.57,0,0,0-.28.27,5.23,5.23,0,0,0-8.38,6.17,5.23,5.23,0,1,0,9-5.34.69.69,0,0,0,.28-.05,56.38,56.38,0,0,1,35.76-2.59,58.79,58.79,0,0,1,30.54,18.74,66.53,66.53,0,0,1,14.94,33,69.16,69.16,0,0,1-4.25,36c-4.55,11.46-12.85,22.38-22.19,30.4-.2.18.45-.3.25-.13a.5.5,0,0,0-.33.21l0,0h0l.11-.11-.41.41,0,0-.22.18c-.22.16,1.22-1.1,1-1s-5.36,4.29-7.25,5.24L312.75,608a45,45,0,0,1-6.45,2.42c-1.09.31-1.7.49-3.22.81a28.62,28.62,0,0,1-8.51.57,20.73,20.73,0,0,1-7.69-2.47,28.08,28.08,0,0,1-11.39-11.29,36.33,36.33,0,0,1-2.84-7.31c-.78-2.58-1.47-5.19-2.29-7.77-.55-1.71-1.15-3.42-1.87-5.08a93.42,93.42,0,0,0-5.86-12.08c0-.07,0-.14-.05-.22a5.05,5.05,0,0,0-2.63-3.3,7.81,7.81,0,0,0-1-.55c-.47-.23-.93-.49-1.37-.76-.13-.07-.31.08-.21.21l.94,1.23a3.58,3.58,0,0,0,1,.91.11.11,0,0,0,.12,0,3.91,3.91,0,0,1,2.09,2.72,1.24,1.24,0,0,0,0,.16h0a5.89,5.89,0,0,1-.11,1.73c-.2-.16-.39-.32-.6-.47a.86.86,0,0,0-.6-.18c-1.46-.68-3.13-.84-4.59-1.56l-.14,0-.65-.31a13.19,13.19,0,0,1-4.52-3.14.1.1,0,0,0-.13,0c-.08-.18-.34,0-.26.15,1.75,3.89,6.23,5,9.58,7.12l.09.07c4.22,3.24,6.55,8.2,8.19,13.15.86,2.61,1.57,5.27,2.35,7.91a45.73,45.73,0,0,0,2.83,7.72,30.68,30.68,0,0,0,11.58,12.43,27,27,0,0,0,7.92,3.13c3.17.68,1.79.55,6.23.15a51.71,51.71,0,0,0,14-4,75.35,75.35,0,0,0,8.06-4.43c.42-.3-.3.2.17,0,.11,0-.18,0-.07-.07a67.64,67.64,0,0,0,22-18.45,74,74,0,0,0,12.68-25.8A78.41,78.41,0,0,0,357,528.85Zm-113.45-45.1a5,5,0,1,1-5-5A5.11,5.11,0,0,1,243.51,483.75Zm21.14,8.83a4,4,0,1,1,2.64-3.79A4.07,4.07,0,0,1,264.65,492.58Zm-14.06,70.51,0,0,0,0Z" transform="translate(-207.21 -463.19)"/><path class="cls-8" d="M297,613.09h-.06a.48.48,0,0,0-.24-.11c-.69-.1-1.39-.19-2.09-.25a4.75,4.75,0,0,0-.74-.12,4.23,4.23,0,0,0-1.83-.79,2.32,2.32,0,0,0-2.34-.15.54.54,0,0,0-.85-.36,13.24,13.24,0,0,1-5.83,2.42c-.69.11-.49,1.18.16,1.19A99.62,99.62,0,0,0,297,614.3C297.75,614.22,297.76,613,297,613.09Z" transform="translate(-207.21 -463.19)"/></svg>